<svg xmlns="http://www.w3.org/2000/svg" viewBox="0 0 45 45">
  <g fill="#1a1a2e" stroke="#e8e8e8" stroke-width="2" stroke-linecap="round">
    <path d="M8 12a2 2 0 1 1-4 0 2 2 0 1 1 4 0zM24.5 7.5a2 2 0 1 1-4 0 2 2 0 1 1 4 0zM41 12a2 2 0 1 1-4 0 2 2 0 1 1 4 0zM10.5 20a2 2 0 1 1-4 0 2 2 0 1 1 4 0zM38.5 20a2 2 0 1 1-4 0 2 2 0 1 1 4 0z"/>
    <path d="M9 26c8.5-1.5 21-1.5 27 0l2-12-7 11V11l-5.5 13.5-3-15-3 15-5.5-13.5V25l-7-11z"/>
    <path d="M9 26c0 2 1.5 2 2.5 4 1 2.5 1 4.5 1 4.5s0 1 10.5 1 10.5-1 10.5-1 0-2 1-4.5c1-2 2.5-2 2.5-4-8.5-1.5-18.5-1.5-27 0z"/>
    <path d="M11.5 30c3.5-1 18.5-1 22 0M12 33.5c6-1 15-1 21 0" fill="none"/>
    <path d="M9 39h27v-3H9v3z"/>
  </g>
</svg>