<svg xmlns="http://www.w3.org/2000/svg" viewBox="0 0 45 45">
  <g fill="#ffffff" stroke="#1a1a2e" stroke-width="2" stroke-linecap="round">
    <path d="M9 36c3.39-.97 9.11-1.45 13.5-1.45 4.39 0 10.11.48 13.5 1.45V32H9v4zm0 4h27v3H9v-3z"/>
    <path d="M15 32c2.5 2.5 12.5 2.5 15 0 .5-1.5 0-2 0-2 0-2.5-2.5-4-2.5-4 5.5-1.5 6-11.5-5-15.5-11 4-10.5 14-5 15.5 0 0-2.5 1.5-2.5 4 0 0-.5.5 0 2zM25 8a2.5 2.5 0 1 1-5 0 2.5 2.5 0 1 1 5 0z"/>
    <path d="M17.5 26h10M15 30h15m-7.5-14.5v5M20 18h5"/>
  </g>
</svg>